<svg width="14" height="14" viewBox="0 0 14 14" fill="none" xmlns="http://www.w3.org/2000/svg">
<path d="M13.1328 1.9475L13.1332 1.94795C13.6223 2.43697 13.6223 3.22891 13.1332 3.71793L12.1619 4.68919L9.31044 1.83799L10.1353 1.01321H10.138L10.2845 0.866781C10.7734 0.377834 11.5653 0.37774 12.0544 0.866499C12.0545 0.866593 12.0546 0.866687 12.0547 0.866781L13.1328 1.9475ZM1.95744 9.19316L1.95751 9.19308L7.98474 3.16374L10.836 6.01479L4.80352 12.0442L4.80344 12.0443C4.57897 12.2688 4.29908 12.4343 3.99133 12.5261C3.99105 12.5262 3.99077 12.5262 3.99048 12.5263L0.701583 13.494C0.644479 13.5099 0.584442 13.4934 0.544964 13.4539C0.506046 13.415 0.48952 13.3562 0.506845 13.2972C0.506851 13.2972 0.506857 13.2972 0.506864 13.2972L1.4754 10.006C1.47547 10.0058 1.47555 10.0055 1.47562 10.0053C1.56743 9.69754 1.73294 9.41764 1.95744 9.19316Z" fill="#F82B1E" stroke="#F82B1E"/>
</svg>
