<svg xmlns="http://www.w3.org/2000/svg" width="24" height="24" viewBox="0 0 24 24" fill="none">
  <path d="M22 16.92V19.92c0 .53-.21 1.04-.59 1.41-.38.37-.88.59-1.41.59-3.08-.33-6.04-1.38-8.64-3.06C8.9 16.27 6.85 14.22 5.19 11.81 3.5 9.24 2.45 6.28 2.12 3.2 2.12 2.67 2.34 2.17 2.71 1.79 3.08 1.42 3.58 1.2 4.11 1.2H7.11c.96 0 1.78.7 1.99 1.64.13.96.36 1.89.7 2.78.13.35.16.73.09 1.1-.07.36-.25.7-.5.96L8.09 9.91c1.42 2.5 3.5 4.58 6 6l1.27-1.27c.26-.25.6-.43.96-.5.37-.07.75-.04 1.1.09.89.34 1.81.57 2.78.7.94.2 1.64 1.02 1.64 1.99Z" stroke="currentColor" stroke-width="2" stroke-linecap="round" stroke-linejoin="round"/>
</svg>
